<svg xmlns="http://www.w3.org/2000/svg" xmlns:xlink="http://www.w3.org/1999/xlink" version="1.1" style="" xml:space="preserve" width="430.2479348222737" height="225.2892635979373"><rect id="backgroundrect" width="100%" height="100%" x="0" y="0" fill="none" stroke="none"/>
















<g class="currentLayer" style=""><title>Layer 1</title><g id="svg_1" class="" fill="#a4ffaf" fill-opacity="1" stroke="none">
	<g id="svg_2" fill="#a4ffaf" fill-opacity="1" stroke="none">
		<g id="svg_3" fill="#a4ffaf" fill-opacity="1" stroke="none" transform="">
			<path d="M193.7471454381247,13.869146508220535 H86.88852433768305 c-7.61582844977899,0 -13.81120109113435,6.060849278133504 -13.81120109113435,13.510394809508206 v31.70979774940987 h12.607595932754094 V27.37954131772875 c0,-0.6491271118614129 0.5400253591196337,-1.1773907842755447 1.2036051583802576,-1.1773907842755447 h106.85862110044162 c0.6635797992606245,0 1.2036051583802576,0.5282636724141324 1.2036051583802576,1.1773907842755447 v104.53125331679863 c0,0.6495382119955873 -0.5400253591196337,1.1778018844097193 -1.2036051583802576,1.1778018844097193 h-31.40510121529269 v12.333004025232661 h31.40510121529269 c7.615408196581231,0 13.81120109113435,-6.060849278133504 13.81120109113435,-13.51080590964238 V27.37954131772875 C207.5579262760613,19.929995786354006 201.3625536347059,13.869146508220535 193.7471454381247,13.869146508220535 z" id="svg_4" fill="#a4ffaf" fill-opacity="1" stroke="none" transform=""/>
			<path d="M135.92240669254804,71.42234309237126 H29.06420584530416 c-7.61582844977899,0 -13.81162134433211,6.060849278133504 -13.81162134433211,13.51080590964238 v104.53125331679863 C15.253004754169801,196.91435895032114 21.448377395525164,202.97520822845468 29.06420584530416,202.97520822845468 h106.85862110044162 c7.61582844977899,0 13.81162134433211,-6.060849278133504 13.81162134433211,-13.510394809508206 V84.93314900201366 C149.73486854327567,77.4831923705048 143.538235142327,71.42234309237126 135.92240669254804,71.42234309237126 zM135.92324719894359,190.642204203222 H29.06420584530416 c-0.664000052458383,0 -1.2040254115780162,-0.5282636724141324 -1.2040254115780162,-1.1773907842755447 V84.93314900201366 c0,-0.6495382119955873 0.5400253591196337,-1.1778018844097193 1.2040254115780162,-1.1778018844097193 h106.85862110044162 c0.664000052458383,0 1.2040254115780162,0.5282636724141324 1.2040254115780162,1.1778018844097193 v104.53166441693281 h0.0004202531977584706 C137.12727261052157,190.1139405308079 136.58682699820417,190.642204203222 135.92324719894359,190.642204203222 z" id="svg_5" fill="#a4ffaf" fill-opacity="1" stroke="none" transform=""/>
		</g>
	</g>
</g><g class="" fill="#ffffff" fill-opacity="1" stroke="none" id="svg_25">
	<g id="svg_27" fill="#ffffff" fill-opacity="1" stroke="none">
		<g id="svg_3" fill="#ffffff" fill-opacity="1" stroke="none">
			<path d="M402.1768939732809,14.860881966594562 H295.3182728728393 c-7.61582844977899,0 -13.81120109113435,6.060849278133504 -13.81120109113435,13.510394809508206 v31.70979774940987 h12.607595932754094 V28.371276776102775 c0,-0.6491271118614129 0.5400253591196337,-1.1773907842755447 1.2036051583802576,-1.1773907842755447 h106.85862110044162 c0.6635797992606246,0 1.2036051583802576,0.5282636724141326 1.2036051583802576,1.1773907842755447 v104.53125331679863 c0,0.6495382119955877 -0.5400253591196337,1.1778018844097193 -1.2036051583802576,1.1778018844097193 h-31.40510121529269 v12.333004025232661 h31.40510121529269 c7.615408196581231,0 13.81120109113435,-6.060849278133504 13.81120109113435,-13.51080590964238 V28.371276776102775 C415.9876748112175,20.92173124472803 409.7923021698622,14.860881966594562 402.1768939732809,14.860881966594562 z" id="svg_4" fill="#ffffff" fill-opacity="1" stroke="none"/>
			<path d="M344.3521552277043,72.41407855074529 H237.49395438046042 c-7.61582844977899,0 -13.81162134433211,6.060849278133504 -13.81162134433211,13.51080590964238 v104.53125331679863 C223.68275328932606,197.90609440869517 229.87812593068142,203.9669436868287 237.49395438046042,203.9669436868287 h106.85862110044162 c7.61582844977899,0 13.81162134433211,-6.060849278133504 13.81162134433211,-13.510394809508206 V85.92488446038769 C358.1646170784319,78.47492782887882 351.9679836774833,72.41407855074529 344.3521552277043,72.41407855074529 zM344.35299573409986,191.63393966159603 H237.49395438046042 c-0.6640000524583837,0 -1.2040254115780162,-0.5282636724141326 -1.2040254115780162,-1.1773907842755447 V85.92488446038769 c0,-0.6495382119955877 0.5400253591196337,-1.1778018844097193 1.2040254115780162,-1.1778018844097193 h106.85862110044162 c0.6640000524583837,0 1.2040254115780162,0.5282636724141326 1.2040254115780162,1.1778018844097193 v104.53166441693281 h0.00042025319775847083 C345.5570211456778,191.10567598918192 345.0165755333604,191.63393966159603 344.35299573409986,191.63393966159603 z" id="svg_5" fill="#ffffff" fill-opacity="1" stroke="none"/>
		</g>
	</g>
</g><g id="svg_6">
</g><g id="svg_7">
</g><g id="svg_8">
</g><g id="svg_9">
</g><g id="svg_10">
</g><g id="svg_11">
</g><g id="svg_12">
</g><g id="svg_13">
</g><g id="svg_14">
</g><g id="svg_15">
</g><g id="svg_16">
</g><g id="svg_17">
</g><g id="svg_18">
</g><g id="svg_19">
</g><g id="svg_20">
</g></g></svg>