<svg xmlns="http://www.w3.org/2000/svg" xmlns:xlink="http://www.w3.org/1999/xlink" version="1.1" style="" xml:space="preserve" width="460" height="460"><rect id="backgroundrect" width="100%" height="100%" x="0" y="0" fill="none" stroke="none"/>
















<g class="currentLayer" style=""><title>Layer 1</title><g id="svg_1" class="selected" fill="#a4ffaf" fill-opacity="1" stroke="none">
	<g id="svg_2" fill="#a4ffaf" fill-opacity="1" stroke="none">
		<g id="svg_3" fill="#a4ffaf" fill-opacity="1" stroke="none">
			<path d="M425.934,-0.8264462351799011 H171.662 c-18.122,0 -32.864,14.743 -32.864,32.864 v77.134 h30 V32.037553764820096 c0,-1.5790000000000002 1.2850000000000001,-2.864 2.864,-2.864 h254.272 c1.5790000000000002,0 2.864,1.2850000000000001 2.864,2.864 v254.272 c0,1.58 -1.2850000000000001,2.865 -2.864,2.865 h-74.729 v30 h74.729 c18.121,0 32.864,-14.743 32.864,-32.865 V32.037553764820096 C458.797,13.9165537648201 444.055,-0.8264462351799011 425.934,-0.8264462351799011 z" id="svg_4" fill="#a4ffaf" fill-opacity="1" stroke="none"/>
			<path d="M288.339,139.1715537648201 H34.068 c-18.122,0 -32.865,14.743 -32.865,32.865 v254.272 C1.204,444.4305537648201 15.946,459.1735537648201 34.068,459.1735537648201 h254.272 c18.122,0 32.865,-14.743 32.865,-32.864 V172.0365537648201 C321.206,153.9145537648201 306.461,139.1715537648201 288.339,139.1715537648201 zM288.341,429.1735537648201 H34.068 c-1.58,0 -2.865,-1.2850000000000001 -2.865,-2.864 V172.0365537648201 c0,-1.58 1.2850000000000001,-2.865 2.865,-2.865 h254.272 c1.58,0 2.865,1.2850000000000001 2.865,2.865 v254.273 h0.0010000000000000002 C291.206,427.8885537648201 289.92,429.1735537648201 288.341,429.1735537648201 z" id="svg_5" fill="#a4ffaf" fill-opacity="1" stroke="none"/>
		</g>
	</g>
</g><g id="svg_6">
</g><g id="svg_7">
</g><g id="svg_8">
</g><g id="svg_9">
</g><g id="svg_10">
</g><g id="svg_11">
</g><g id="svg_12">
</g><g id="svg_13">
</g><g id="svg_14">
</g><g id="svg_15">
</g><g id="svg_16">
</g><g id="svg_17">
</g><g id="svg_18">
</g><g id="svg_19">
</g><g id="svg_20">
</g></g></svg>